# xmcd CD database file
#
# Track frame offsets:
#	150
#	23042
#	50280
#	65525
#	90240
#	112905
#	139060
#	164810
#	183005
#	209340
#
# Disc length: 2839 seconds
#
# Revision: 0
# Processed by: cddbd v1.5.1PL2 Copyright (c) Steve Scherf et al.
# Submitted via: CDex 1.51
#
DISCID=7e0b150a
DTITLE=岩代太郎&モスクワ・モス・フィルム・オーケストラ - 手塚治虫 メモリアル・シンフォニー
DYEAR=1994
DGENRE=Anime
TTITLE0=プロローグ
TTITLE1=鉄腕アトム
TTITLE2=リボンの騎士
TTITLE3=ジャングル大帝
TTITLE4=海のトリトン
TTITLE5=ふしぎなメルモ
TTITLE6=イン・メモリアル I
TTITLE7=イン・メモリアル II
TTITLE8=エピローグ
TTITLE9=鉄腕アツム・リプライズ
EXTD=YEAR: 1994
EXTT0=
EXTT1=
EXTT2=
EXTT3=
EXTT4=
EXTT5=
EXTT6=
EXTT7=
EXTT8=
EXTT9=
PLAYORDER=
